<?xml version="1.0" encoding="UTF-8"?>
<svg width="32px" height="32px" viewBox="0 0 32 32" version="1.1" xmlns="http://www.w3.org/2000/svg" xmlns:xlink="http://www.w3.org/1999/xlink">
    <!-- Generator: Sketch 52.2 (67145) - http://www.bohemiancoding.com/sketch -->
    <title>Group 8</title>
    <desc>Created with Sketch.</desc>
    <g id="Sketchbook" stroke="none" stroke-width="1" fill="none" fill-rule="evenodd">
        <g id="Group-8">
            <g id="edit" fill="#D5D5D5">
                <circle id="Oval" cx="16" cy="16" r="16"></circle>
            </g>
            <path d="M21.3686904,13.1381517 L20.5891705,13.1381517 C20.5941356,13.103396 20.6090309,13.0725021 20.6090309,13.0366431 L20.6090309,10.5921613 C20.6090309,8.06051446 18.5496198,6 16.0174213,6 C13.4852228,6 11.4269151,8.06051446 11.4269151,10.5921613 L11.4269151,13.0366431 C11.4269151,13.0725021 11.442362,13.103396 11.4467754,13.1381517 L10.7919346,13.1381517 C9.89214901,13.1381517 9.160625,13.9276018 9.160625,14.8974504 L9.160625,21.8949244 C9.160625,22.8653246 9.89270068,23.6536714 10.7919346,23.6536714 L21.3692421,23.6536714 C22.2690277,23.6536714 23,22.8653246 23,21.8943727 L23,14.8968987 C22.9994483,13.9276018 22.2679243,13.1381517 21.3686904,13.1381517 L21.3686904,13.1381517 Z M12.8772745,13.1381517 C12.8822396,13.103396 12.8971349,13.0725021 12.8971349,13.0366431 L12.8971349,10.5921613 C12.8976866,8.87092831 14.2978434,7.47132317 16.017973,7.47132317 C17.7381026,7.47132317 19.1382594,8.87092831 19.1382594,10.5921613 L19.1382594,13.0366431 C19.1382594,13.0725021 19.1537064,13.103396 19.1581198,13.1381517 L12.8772745,13.1381517 L12.8772745,13.1381517 Z" id="Shape" fill="#333333"></path>
        </g>
    </g>
</svg>